<?xml version="1.0" standalone="no"?>
<!DOCTYPE svg PUBLIC "-//W3C//DTD SVG 20010904//EN"
 "http://www.w3.org/TR/2001/REC-SVG-20010904/DTD/svg10.dtd">
<svg version="1.0" xmlns="http://www.w3.org/2000/svg"
 width="842.000000pt" height="285.000000pt" viewBox="0 0 842.000000 285.000000"
 preserveAspectRatio="xMidYMid meet">

<g transform="translate(0.000000,285.000000) scale(0.100000,-0.100000)"
fill="#000000" stroke="none">
<path d="M1003 2625 c-13 -13 -23 -30 -23 -37 0 -8 -9 -20 -20 -28 -11 -8 -20
-22 -20 -32 0 -10 -4 -18 -10 -18 -5 0 -10 -22 -10 -50 0 -27 -4 -50 -10 -50
-5 0 -10 -9 -10 -20 0 -11 -4 -20 -10 -20 -5 0 -10 -9 -10 -20 0 -11 -4 -20
-10 -20 -5 0 -10 -9 -10 -20 0 -11 -4 -20 -10 -20 -5 0 -10 -9 -10 -20 0 -11
-4 -20 -10 -20 -5 0 -10 -13 -10 -30 0 -16 -4 -30 -10 -30 -5 0 -10 -13 -10
-30 0 -16 -4 -30 -10 -30 -5 0 -10 -18 -10 -40 0 -22 -4 -40 -10 -40 -6 0 -10
-27 -10 -60 0 -33 4 -60 10 -60 6 0 10 -13 10 -28 0 -16 8 -34 20 -42 11 -8
20 -21 20 -28 0 -8 14 -27 30 -42 17 -15 30 -35 30 -44 0 -9 5 -16 10 -16 6 0
10 -9 10 -20 0 -11 5 -20 10 -20 6 0 10 -9 10 -20 0 -11 5 -20 10 -20 6 0 10
-27 10 -60 0 -33 4 -60 10 -60 6 0 10 30 10 70 0 40 4 70 10 70 6 0 10 9 10
20 0 11 5 20 10 20 6 0 10 8 10 18 0 10 9 24 20 32 11 8 20 22 20 32 0 10 5
18 10 18 6 0 10 9 10 20 0 11 5 20 10 20 6 0 10 9 10 20 0 11 5 20 10 20 6 0
10 9 10 20 0 11 5 20 10 20 6 0 10 14 10 30 0 17 5 30 10 30 6 0 10 14 10 30
0 17 5 30 10 30 6 0 10 27 10 60 0 33 4 60 10 60 6 0 10 27 10 60 0 33 -4 60
-10 60 -6 0 -10 27 -10 60 0 33 -4 60 -10 60 -5 0 -10 14 -10 30 0 17 -4 30
-10 30 -5 0 -10 14 -10 30 0 17 -4 30 -10 30 -5 0 -10 9 -10 20 0 11 -4 20
-10 20 -5 0 -10 7 -10 15 0 13 -43 66 -52 64 -2 0 -13 -11 -25 -24z"/>
<path d="M1500 1740 c0 -6 -27 -10 -60 -10 -33 0 -60 -4 -60 -10 0 -5 -18 -10
-40 -10 -22 0 -40 -4 -40 -10 0 -5 -13 -10 -30 -10 -16 0 -30 -4 -30 -10 0 -5
-7 -10 -15 -10 -20 0 -125 -105 -125 -125 0 -8 -4 -15 -10 -15 -5 0 -10 -9
-10 -20 0 -11 -4 -20 -10 -20 -5 0 -10 -13 -10 -29 0 -16 -6 -31 -12 -34 -7
-2 -10 -8 -6 -12 5 -5 16 2 27 13 10 12 30 22 45 22 14 0 26 5 26 10 0 6 18
10 40 10 22 0 40 5 40 10 0 6 14 10 30 10 17 0 30 5 30 10 0 6 9 10 20 10 11
0 20 5 20 10 0 6 14 10 30 10 17 0 30 5 30 10 0 6 9 10 20 10 11 0 20 5 20 10
0 6 9 10 20 10 11 0 20 5 20 10 0 6 9 10 20 10 11 0 20 5 20 10 0 6 7 10 16
10 8 0 33 18 54 40 21 22 46 40 54 40 9 0 16 5 16 10 0 6 9 10 20 10 11 0 20
5 20 10 0 6 9 10 20 10 11 0 20 5 20 10 0 6 -43 10 -110 10 -67 0 -110 -4
-110 -10z"/>
<path d="M2273 1735 c-7 -8 -13 -28 -13 -45 0 -56 13 -60 180 -60 147 0 152
-1 175 -25 19 -18 25 -35 25 -65 0 -48 -17 -70 -54 -70 -14 0 -26 -4 -26 -10
0 -6 -57 -10 -150 -10 l-150 0 0 -50 0 -50 180 0 c113 0 180 -4 180 -10 0 -5
9 -10 20 -10 13 0 20 -7 20 -20 0 -11 5 -20 10 -20 6 0 10 -16 10 -35 0 -49
-36 -85 -85 -85 -19 0 -35 -4 -35 -10 0 -6 -57 -10 -150 -10 l-150 0 0 -36 c0
-60 11 -64 174 -64 91 0 146 4 146 10 0 6 23 10 50 10 28 0 50 5 50 10 0 6 7
10 15 10 26 0 85 66 85 95 0 14 5 25 10 25 6 0 10 18 10 40 0 22 -4 40 -10 40
-5 0 -10 7 -10 15 0 20 -65 85 -85 85 -25 0 -17 30 15 60 17 15 30 35 30 44 0
9 5 16 10 16 6 0 10 23 10 50 0 28 -4 50 -10 50 -5 0 -10 9 -10 20 0 11 -4 20
-10 20 -5 0 -10 9 -10 20 0 13 -7 20 -20 20 -11 0 -20 5 -20 10 0 6 -9 10 -20
10 -11 0 -20 5 -20 10 0 6 -22 10 -50 10 -27 0 -50 5 -50 10 0 17 -252 12
-267 -5z"/>
<path d="M3020 1400 l0 -350 240 0 240 0 0 60 0 60 -180 0 -180 0 0 290 0 290
-60 0 -60 0 0 -350z"/>
<path d="M5153 1735 c-10 -11 -13 -93 -13 -335 0 -362 -3 -350 74 -350 l46 0
0 240 c0 132 2 240 5 240 12 0 55 -50 55 -62 0 -8 9 -20 20 -28 11 -8 20 -21
20 -30 0 -9 9 -22 20 -30 11 -8 20 -21 20 -30 0 -9 9 -22 20 -30 11 -8 20 -20
20 -28 0 -7 11 -24 25 -38 22 -22 27 -23 40 -10 8 8 15 21 15 28 0 8 9 20 20
28 11 8 20 21 20 30 0 9 9 22 20 30 11 8 20 21 20 30 0 9 9 22 20 30 11 8 20
21 20 30 0 9 9 22 20 30 11 8 20 22 20 32 0 10 5 18 10 18 6 0 10 8 10 18 0
10 9 24 20 32 11 8 20 21 20 30 0 9 9 22 20 30 11 8 20 21 20 30 0 9 9 22 20
30 11 8 20 22 20 32 0 15 -9 18 -60 18 -51 0 -60 -3 -60 -18 0 -10 -9 -24 -20
-32 -11 -8 -20 -21 -20 -30 0 -9 -9 -22 -20 -30 -11 -8 -20 -21 -20 -30 0 -9
-9 -22 -20 -30 -11 -8 -20 -21 -20 -30 0 -9 -9 -22 -20 -30 -11 -8 -20 -22
-20 -32 0 -10 -4 -18 -10 -18 -5 0 -10 -9 -10 -20 0 -16 -7 -20 -30 -20 -23 0
-30 4 -30 20 0 11 -4 20 -10 20 -5 0 -10 8 -10 18 0 10 -9 24 -20 32 -11 8
-20 21 -20 30 0 9 -9 22 -20 30 -11 8 -20 21 -20 30 0 9 -9 22 -20 30 -11 8
-20 21 -20 30 0 9 -9 22 -20 30 -11 8 -20 22 -20 32 0 15 -9 18 -57 18 -37 -1
-63 -6 -70 -15z"/>
<path d="M6160 1740 c0 -5 -13 -10 -30 -10 -16 0 -30 -4 -30 -10 0 -5 -9 -10
-20 -10 -11 0 -20 -4 -20 -10 0 -5 -6 -10 -13 -10 -19 0 -87 -65 -87 -84 0 -9
-4 -16 -10 -16 -5 0 -10 -9 -10 -20 0 -11 -4 -20 -10 -20 -5 0 -10 -9 -10 -20
0 -11 -4 -20 -10 -20 -5 0 -10 -22 -10 -50 0 -27 -4 -50 -10 -50 -5 0 -10 -9
-10 -20 0 -11 5 -20 10 -20 6 0 10 -22 10 -50 0 -27 5 -50 10 -50 6 0 10 -9
10 -20 0 -11 5 -20 10 -20 6 0 10 -7 10 -15 0 -20 85 -105 105 -105 8 0 15 -4
15 -10 0 -5 9 -10 20 -10 11 0 20 -4 20 -10 0 -5 18 -10 40 -10 l40 0 0 50 c0
47 -2 50 -25 50 -29 0 -115 79 -115 105 0 8 -4 15 -10 15 -5 0 -10 18 -10 40
0 22 -4 40 -10 40 -5 0 -10 18 -10 40 0 22 5 40 10 40 6 0 10 16 10 35 0 29 9
44 45 80 24 25 51 45 60 45 8 0 15 4 15 9 0 5 9 11 20 14 17 4 20 14 20 61 0
31 -4 56 -10 56 -5 0 -10 -4 -10 -10z"/>
<path d="M6900 1740 c0 -5 -13 -10 -30 -10 -16 0 -30 -4 -30 -10 0 -5 -9 -10
-20 -10 -11 0 -20 -4 -20 -10 0 -5 -6 -10 -14 -10 -18 0 -86 -68 -86 -86 0 -8
-4 -14 -10 -14 -5 0 -10 -9 -10 -20 0 -11 -4 -20 -10 -20 -5 0 -10 -9 -10 -20
0 -11 -4 -20 -10 -20 -6 0 -10 -47 -10 -120 0 -73 4 -120 10 -120 6 0 10 -9
10 -20 0 -11 5 -20 10 -20 6 0 10 -7 10 -15 0 -20 85 -105 105 -105 8 0 15 -4
15 -10 0 -5 9 -10 20 -10 11 0 20 -4 20 -10 0 -5 18 -10 40 -10 l40 0 0 50 c0
43 -3 50 -20 50 -11 0 -20 5 -20 10 0 6 -7 10 -15 10 -19 0 -55 35 -74 73 -8
15 -18 27 -23 27 -4 0 -8 23 -8 50 0 28 -4 50 -10 50 -5 0 -10 9 -10 20 0 11
5 20 10 20 6 0 10 18 10 40 0 22 5 40 10 40 6 0 10 7 10 15 0 20 65 85 85 85
8 0 15 5 15 10 0 6 9 10 20 10 18 0 20 7 20 60 0 33 -4 60 -10 60 -5 0 -10 -4
-10 -10z"/>
<path d="M7460 1690 l0 -60 130 0 c80 0 130 -4 130 -10 0 -5 7 -10 15 -10 20
0 85 -65 85 -85 0 -8 5 -15 10 -15 6 0 10 -18 10 -40 0 -22 5 -40 10 -40 6 0
10 -13 10 -30 0 -16 -4 -30 -10 -30 -5 0 -10 -18 -10 -40 0 -22 -4 -40 -10
-40 -5 0 -10 -7 -10 -15 0 -20 -45 -65 -65 -65 -8 0 -15 -4 -15 -10 0 -5 -9
-10 -20 -10 -11 0 -20 -4 -20 -10 0 -6 -47 -10 -120 -10 l-120 0 0 -60 0 -60
100 0 c60 0 100 4 100 10 0 6 23 10 50 10 28 0 50 5 50 10 0 6 9 10 20 10 11
0 20 5 20 10 0 6 7 10 15 10 20 0 105 85 105 105 0 8 5 15 10 15 6 0 10 9 10
20 0 11 5 20 10 20 6 0 10 14 10 30 0 17 5 30 10 30 6 0 10 30 10 70 0 40 -4
70 -10 70 -5 0 -10 14 -10 30 0 17 -4 30 -10 30 -5 0 -10 9 -10 20 0 11 -4 20
-10 20 -5 0 -10 6 -10 14 0 18 -68 86 -86 86 -8 0 -14 5 -14 10 0 6 -9 10 -20
10 -11 0 -20 5 -20 10 0 6 -9 10 -20 10 -11 0 -20 5 -20 10 0 6 -18 10 -40 10
-22 0 -40 5 -40 10 0 6 -40 10 -100 10 l-100 0 0 -60z"/>
<path d="M3850 1710 c-8 -11 -20 -20 -27 -20 -19 0 -103 -86 -103 -105 0 -8
-4 -15 -10 -15 -5 0 -10 -9 -10 -20 0 -11 -4 -20 -10 -20 -5 0 -10 -13 -10
-30 0 -16 -4 -30 -10 -30 -6 0 -10 -33 -10 -80 0 -47 4 -80 10 -80 6 0 10 -13
10 -30 0 -16 5 -30 10 -30 6 0 10 -7 10 -15 0 -20 105 -125 125 -125 8 0 15
-4 15 -10 0 -5 9 -10 20 -10 11 0 20 -4 20 -10 0 -5 18 -10 40 -10 39 0 40 1
40 36 0 36 -18 64 -42 64 -8 0 -20 9 -28 20 -8 11 -22 20 -32 20 -11 0 -18 7
-18 18 0 10 -9 24 -20 32 -12 8 -20 26 -20 42 0 15 -4 28 -10 28 -6 0 -10 33
-10 80 0 47 4 80 10 80 6 0 10 9 10 20 0 11 5 20 10 20 6 0 10 9 10 20 0 11 6
20 14 20 7 0 27 14 44 30 18 17 37 30 43 30 21 0 39 29 39 64 l0 36 -48 0
c-36 0 -51 -5 -62 -20z"/>
<path d="M4060 1680 c0 -43 3 -50 20 -50 11 0 20 -4 20 -10 0 -5 7 -10 15 -10
20 0 65 -45 65 -65 0 -8 5 -15 10 -15 6 0 10 -9 10 -20 0 -11 5 -20 10 -20 6
0 10 -40 10 -100 0 -60 -4 -100 -10 -100 -5 0 -10 -7 -10 -15 0 -20 -65 -85
-85 -85 -8 0 -15 -4 -15 -10 0 -5 -9 -10 -20 -10 -18 0 -20 -7 -20 -60 0 -33
4 -60 10 -60 6 0 10 5 10 10 0 6 14 10 30 10 17 0 30 5 30 10 0 6 8 10 18 10
10 0 24 9 32 20 8 11 20 20 28 20 17 0 42 25 42 42 0 8 9 20 20 28 11 8 20 22
20 32 0 10 5 18 10 18 6 0 10 14 10 30 0 17 5 30 10 30 6 0 10 40 10 100 0 60
-4 100 -10 100 -5 0 -10 9 -10 20 0 11 -4 20 -10 20 -5 0 -10 7 -10 16 0 9 -8
24 -17 33 -10 9 -23 25 -29 35 -6 11 -19 24 -30 30 -10 6 -26 19 -35 29 -9 9
-28 17 -43 17 -14 0 -26 5 -26 10 0 6 -13 10 -30 10 -29 0 -30 -1 -30 -50z"/>
<path d="M4592 1710 c-12 -11 -26 -20 -32 -20 -16 0 -100 -88 -100 -105 0 -8
-4 -15 -10 -15 -5 0 -10 -9 -10 -20 0 -11 -4 -20 -10 -20 -5 0 -10 -13 -10
-30 0 -16 -4 -30 -10 -30 -6 0 -10 -33 -10 -80 0 -47 4 -80 10 -80 6 0 10 -13
10 -30 0 -16 5 -30 10 -30 6 0 10 -7 10 -15 0 -20 105 -125 125 -125 8 0 15
-4 15 -10 0 -5 9 -10 20 -10 11 0 20 -4 20 -10 0 -5 18 -10 40 -10 39 0 40 1
40 36 0 36 -18 64 -42 64 -8 0 -20 9 -28 20 -8 11 -22 20 -32 20 -11 0 -18 7
-18 20 0 11 -4 20 -10 20 -5 0 -10 9 -10 20 0 11 -4 20 -10 20 -5 0 -10 14
-10 30 0 17 -4 30 -10 30 -6 0 -10 27 -10 60 0 33 4 60 10 60 6 0 10 11 10 25
0 26 78 115 100 115 25 0 60 49 60 85 0 35 0 35 -43 35 -29 0 -50 -6 -65 -20z"/>
<path d="M4800 1680 c0 -43 3 -50 20 -50 11 0 20 -4 20 -10 0 -5 7 -10 15 -10
19 0 65 -44 65 -62 0 -8 9 -20 20 -28 15 -11 20 -26 20 -62 0 -26 5 -48 10
-48 6 0 10 -9 10 -20 0 -11 -4 -20 -10 -20 -5 0 -10 -18 -10 -40 0 -22 -4 -40
-10 -40 -5 0 -10 -7 -10 -15 0 -20 -65 -85 -85 -85 -8 0 -15 -4 -15 -10 0 -5
-9 -10 -20 -10 -18 0 -20 -7 -20 -60 0 -33 4 -60 10 -60 6 0 10 5 10 10 0 6
14 10 30 10 17 0 30 5 30 10 0 6 9 10 20 10 11 0 20 5 20 10 0 6 7 10 15 10
19 0 65 44 65 62 0 8 9 20 20 28 11 8 20 22 20 32 0 10 5 18 10 18 6 0 10 9
10 20 0 11 5 20 10 20 6 0 10 43 10 110 0 67 -4 110 -10 110 -5 0 -10 13 -10
28 0 16 -8 34 -20 42 -11 8 -20 20 -20 28 0 14 -49 61 -65 62 -6 0 -17 9 -25
20 -8 12 -26 20 -42 20 -15 0 -28 5 -28 10 0 6 -13 10 -30 10 -29 0 -30 -1
-30 -50z"/>
<path d="M6280 1680 c0 -43 3 -50 20 -50 11 0 20 -4 20 -10 0 -5 7 -10 15 -10
20 0 85 -65 85 -85 0 -8 5 -15 10 -15 6 0 10 -18 10 -40 0 -22 5 -40 10 -40 6
0 10 -18 10 -40 0 -22 -4 -40 -10 -40 -5 0 -10 -16 -10 -35 0 -29 -9 -44 -45
-80 -24 -25 -51 -45 -60 -45 -8 0 -15 -4 -15 -10 0 -5 -9 -10 -20 -10 -18 0
-20 -7 -20 -60 0 -33 4 -60 10 -60 6 0 10 5 10 10 0 6 14 10 30 10 17 0 30 5
30 10 0 6 9 10 20 10 11 0 20 5 20 10 0 6 7 10 15 10 19 0 85 64 85 82 0 8 9
20 20 28 12 8 20 26 20 42 0 15 5 28 10 28 6 0 10 18 10 40 0 22 5 40 10 40 6
0 10 14 10 30 0 17 -4 30 -10 30 -5 0 -10 23 -10 50 0 28 -4 50 -10 50 -5 0
-10 9 -10 20 0 11 -4 20 -10 20 -5 0 -10 6 -10 13 0 20 -85 107 -104 107 -9 0
-16 5 -16 10 0 6 -9 10 -20 10 -11 0 -20 5 -20 10 0 6 -18 10 -40 10 l-40 0 0
-50z"/>
<path d="M7020 1680 c0 -47 2 -50 25 -50 29 0 115 -79 115 -105 0 -8 5 -15 10
-15 6 0 10 -13 10 -30 0 -16 5 -30 10 -30 6 0 10 -27 10 -60 0 -33 -4 -60 -10
-60 -5 0 -10 -11 -10 -25 0 -17 -17 -43 -55 -80 -30 -30 -59 -55 -65 -55 -22
0 -40 -29 -40 -64 l0 -36 48 0 c36 0 51 5 62 20 8 11 20 20 27 20 19 0 103 86
103 105 0 8 5 15 10 15 6 0 10 9 10 20 0 11 5 20 10 20 6 0 10 18 10 40 0 22
5 40 10 40 6 0 10 27 10 60 0 33 -4 60 -10 60 -5 0 -10 14 -10 30 0 17 -4 30
-10 30 -5 0 -10 9 -10 20 0 11 -4 20 -10 20 -5 0 -10 7 -10 15 0 20 -85 105
-105 105 -8 0 -15 5 -15 10 0 6 -9 10 -20 10 -11 0 -20 5 -20 10 0 6 -18 10
-40 10 l-40 0 0 -50z"/>
<path d="M180 1680 c0 -5 9 -10 20 -10 11 0 20 -4 20 -10 0 -5 9 -10 20 -10
11 0 20 -4 20 -10 0 -5 7 -10 16 -10 8 0 33 -18 54 -40 21 -22 46 -40 54 -40
9 0 16 -4 16 -10 0 -5 9 -10 20 -10 11 0 20 -4 20 -10 0 -5 9 -10 20 -10 11 0
20 -4 20 -10 0 -5 9 -10 20 -10 11 0 20 -4 20 -10 0 -5 14 -10 30 -10 17 0 30
-4 30 -10 0 -5 9 -10 20 -10 11 0 20 -4 20 -10 0 -5 14 -10 30 -10 17 0 30 -4
30 -10 0 -5 14 -10 30 -10 17 0 30 -4 30 -10 0 -5 16 -10 36 -10 29 0 43 -8
75 -41 22 -23 43 -39 46 -35 3 3 -4 14 -15 25 -12 10 -22 26 -22 35 0 9 -4 16
-10 16 -5 0 -10 9 -10 20 0 11 -4 20 -10 20 -5 0 -10 9 -10 20 0 11 -4 20 -10
20 -5 0 -10 7 -10 15 0 20 -105 125 -125 125 -8 0 -15 5 -15 10 0 6 -9 10 -20
10 -11 0 -20 5 -20 10 0 6 -18 10 -40 10 -22 0 -40 5 -40 10 0 6 -30 10 -70
10 -40 0 -70 4 -70 10 0 6 -43 10 -110 10 -67 0 -110 -4 -110 -10z"/>
<path d="M5800 1512 c0 -10 -9 -24 -20 -32 -11 -8 -20 -21 -20 -30 0 -9 -9
-22 -20 -30 -19 -13 -20 -26 -20 -192 l0 -178 50 0 50 0 0 240 c0 153 -4 240
-10 240 -5 0 -10 -8 -10 -18z"/>
<path d="M960 1420 c0 -16 5 -30 10 -30 6 0 10 14 10 30 0 17 -4 30 -10 30 -5
0 -10 -13 -10 -30z"/>
<path d="M1020 1380 c0 -5 -9 -10 -20 -10 -17 0 -20 -7 -20 -50 0 -27 -3 -50
-6 -50 -4 0 -15 10 -25 22 -11 11 -22 18 -25 15 -4 -4 7 -20 25 -36 19 -18 31
-39 31 -55 0 -14 5 -26 10 -26 6 0 10 30 10 70 0 40 4 70 10 70 6 0 10 9 10
20 0 11 5 20 10 20 6 0 10 5 10 10 0 6 -4 10 -10 10 -5 0 -10 -4 -10 -10z"/>
<path d="M1000 1080 c0 -27 5 -50 10 -50 6 0 10 23 10 50 0 28 -4 50 -10 50
-5 0 -10 -22 -10 -50z"/>
<path d="M460 930 l0 -80 550 0 550 0 0 80 0 80 -550 0 -550 0 0 -80z"/>
<path d="M520 736 c0 -19 5 -38 10 -41 6 -3 10 -19 10 -36 0 -16 5 -29 10 -29
6 0 10 -18 10 -40 0 -22 5 -40 10 -40 6 0 10 -18 10 -40 0 -22 5 -40 10 -40 6
0 10 -18 10 -40 0 -22 5 -40 10 -40 6 0 10 -13 10 -30 0 -16 5 -30 10 -30 6 0
10 -18 10 -40 0 -22 5 -40 10 -40 6 0 10 -16 10 -36 0 -65 -8 -64 373 -64
l345 0 5 43 c3 23 11 67 17 97 6 30 14 79 17 108 3 28 9 52 14 52 5 0 9 23 9
50 0 28 5 50 10 50 6 0 10 23 10 50 0 28 5 50 10 50 6 0 10 23 10 50 0 28 5
50 10 50 6 0 10 5 10 10 0 7 -170 10 -490 10 l-490 0 0 -34z"/>
</g>
</svg>
